# xmcd
#
# Track frame offsets:
#	150
#	19217
#	29953
#	44840
#	59832
#	68979
#	86153
#	96937
#	109729
#	122251
#	138312
#	154960
#	170008
#	186489
#	201059
#
# Disc length: 2844 seconds
#
# Revision: 0
# Processed by: cddbd v1.5.1PL0 Copyright (c) Steve Scherf et al.
# Submitted via: dBpowerAMP V4.0
#
DISCID=ea0b1a0f
DTITLE=George Kamikawa - Blue to the Bone
DYEAR=2004
DGENRE=Blues
TTITLE0=Mystery Train
TTITLE1=Walking Blues
TTITLE2=Escape
TTITLE3=Sake Blues
TTITLE4=Waltzing Matilda
TTITLE5=High Heel Sneakers
TTITLE6=Blue To The Bone
TTITLE7=Ramblin' On My Mind
TTITLE8=Mountain Rag
TTITLE9=Hoochie Coochie Man
TTITLE10=When The Staints Go Marching In
TTITLE11=Indigo Blues
TTITLE12=Amazing Grace/Swing Low, Sweet Chariot
TTITLE13=Somebody Stole My Gal
TTITLE14=Harp Song
EXTD=
EXTT0=
EXTT1=
EXTT2=
EXTT3=
EXTT4=
EXTT5=
EXTT6=
EXTT7=
EXTT8=
EXTT9=
EXTT10=
EXTT11=
EXTT12=
EXTT13=
EXTT14=
PLAYORDER=
